<svg width="12" height="17" viewBox="0 0 12 17" fill="none" xmlns="http://www.w3.org/2000/svg">
<path id="Vector" d="M6.39844 0.683594C3.36572 0.683594 0.898438 3.20658 0.898438 6.30773C0.898438 10.1564 5.8204 15.8064 6.02996 16.045C6.22679 16.2692 6.57044 16.2688 6.76692 16.045C6.97648 15.8064 11.8984 10.1564 11.8984 6.30773C11.8984 3.20658 9.43112 0.683594 6.39844 0.683594ZM6.39844 9.1374C4.8726 9.1374 3.63128 7.86802 3.63128 6.30773C3.63128 4.74745 4.87263 3.4781 6.39844 3.4781C7.92424 3.4781 9.16557 4.74748 9.16557 6.30777C9.16557 7.86805 7.92424 9.1374 6.39844 9.1374Z" fill="#458BD1"/>
</svg>
