<svg width="103" height="58" viewBox="0 0 103 58" fill="none" xmlns="http://www.w3.org/2000/svg">
<g id="Group 294">
<path id="D" d="M22.1465 57.2329V0.683594L24.1377 0.683594C28.8103 0.683594 32.9254 1.42696 36.4829 2.91371C40.0405 4.40045 43.014 6.41817 45.4034 8.96687C47.7928 11.5156 49.5981 14.5156 50.8194 17.967C52.0406 21.3652 52.6512 25.0024 52.6512 28.8786C52.6512 33.1795 51.961 37.0822 50.5804 40.5867C49.253 44.0381 47.3414 47.0115 44.8458 49.5071C42.3502 51.9496 39.3502 53.8612 35.8457 55.2417C32.3413 56.5692 28.4386 57.2329 24.1377 57.2329H22.1465ZM34.359 26.0373C34.359 23.8603 34.359 22.5026 34.359 20.7275C34.359 19.5566 34.359 18.9462 34.359 17.967C33.2971 16.6926 34.359 17.1945 34.359 16.7452C34.359 15.4178 34.359 14.754 34.359 14.2236V43.6929V41.9667C34.359 42.4609 34.359 40.9481 34.359 40.5867C34.359 39.4619 34.359 39.3118 34.359 38.6481C34.359 36.1709 34.359 40.5867 34.359 30.0197C34.359 28.0285 34.359 28.1613 34.359 26.0373Z" fill="#FFDF42"/>
<path id="R" d="M12.1914 47.94V10.7715H28.4283C30.1549 10.7715 31.7487 11.1554 33.2097 11.9232C34.6707 12.6561 35.9158 13.6333 36.9452 14.8548C38.0077 16.0414 38.8378 17.4199 39.4355 18.9904C40.0332 20.526 40.332 22.0791 40.332 23.6496C40.332 25.8134 39.8838 27.8376 38.9872 29.7222C38.0907 31.5719 36.8456 33.0901 35.2518 34.2767L42.7227 47.94H31.7653L25.5395 36.5277H21.9036V47.94H12.1914ZM21.9036 27.6282H28.0298C28.6275 27.6282 29.1754 27.2792 29.6734 26.5812C30.2047 25.8832 30.4703 24.906 30.4703 23.6496C30.4703 22.3583 30.1715 21.3811 29.5738 20.718C28.9762 20.02 28.3785 19.671 27.7808 19.671H21.9036V27.6282Z" fill="#F7F7F7"/>
<path id="Vector 77" d="M16.1729 40.904V15.418H14.1818L2.89844 29.4885V32.1434H29.4474" stroke="url(#paint0_linear_1_4181)" stroke-width="4"/>
<g id="RENT 4DAY">
<path d="M60.9345 13.7969H64.4867C65.8991 13.7969 66.9664 14.0464 67.6885 14.5456C68.4107 15.0447 68.7717 15.9314 68.7717 17.2058C68.7717 18.0659 68.6602 18.7509 68.4372 19.2607C68.2142 19.7704 67.8 20.1686 67.1947 20.4554L68.9629 26.6997H66.016L64.5982 20.9173H63.7858V26.6997H60.9345V13.7969ZM64.5823 19.2766C65.1558 19.2766 65.554 19.1279 65.777 18.8306C66.0106 18.5226 66.1275 18.0659 66.1275 17.4606C66.1275 16.8766 66.0213 16.4412 65.8089 16.1544C65.5965 15.8571 65.2301 15.7084 64.7097 15.7084H63.7858V19.2766H64.5823Z" fill="#211A1D"/>
<path d="M73.6718 13.7969H79.4701V15.7403H76.5231V18.9421H78.7692V20.9173H76.5231V24.7722H79.5019V26.6997H73.6718V13.7969Z" fill="#211A1D"/>
<path d="M83.9823 13.7969H85.9894L88.6337 20.0093V13.7969H90.9912V26.6997H89.0638L86.4195 20.0093V26.6997H83.9823V13.7969Z" fill="#211A1D"/>
<path d="M97.2602 15.9155H95.3168V13.7969H102.055V15.9155H100.127V26.6997H97.2602V15.9155Z" fill="#211A1D"/>
<path d="M64.3434 39.7299H60.377V37.7706L63.7381 29.7263H66.8284V37.7547H68.0231V39.7299H66.8284V42.6291H64.3434V39.7299ZM64.3434 37.7547V32.3865L62.4 37.7547H64.3434Z" fill="#211A1D"/>
<path d="M72.4739 29.7263H75.7395C76.8545 29.7263 77.7253 29.8643 78.3519 30.1404C78.9784 30.4165 79.4192 30.8519 79.674 31.4466C79.9395 32.0307 80.0723 32.8166 80.0723 33.8042V38.4874C80.0723 39.4857 79.9395 40.2821 79.674 40.8768C79.4192 41.4715 78.9784 41.9122 78.3519 42.199C77.736 42.4857 76.8758 42.6291 75.7713 42.6291H72.4739V29.7263ZM75.7713 40.6538C76.1855 40.6538 76.4882 40.5954 76.6793 40.4786C76.8811 40.3512 77.0085 40.1759 77.0616 39.9529C77.1147 39.7193 77.1413 39.3795 77.1413 38.9334V33.3104C77.1413 32.8962 77.1094 32.5829 77.0457 32.3705C76.9926 32.1475 76.8651 31.9829 76.6634 31.8767C76.4722 31.7705 76.1696 31.7174 75.7554 31.7174H75.3253V40.6538H75.7713Z" fill="#211A1D"/>
<path d="M86.6227 29.7263H89.8723L92.2776 42.6291H89.6493L89.2192 39.9051H87.3236L86.8776 42.6291H84.1855L86.6227 29.7263ZM88.9484 38.2007L88.2634 33.167L87.5785 38.2007H88.9484Z" fill="#211A1D"/>
<path d="M97.7533 37.3564L95.3001 29.7263H97.9922L99.2188 33.8042L100.318 29.7263H102.898L100.493 37.3564V42.6291H97.7533V37.3564Z" fill="#211A1D"/>
</g>
</g>
<defs>
<linearGradient id="paint0_linear_1_4181" x1="18.1641" y1="31.3473" x2="31.4386" y2="31.3473" gradientUnits="userSpaceOnUse">
<stop stop-color="#211A1D"/>
<stop offset="1" stop-color="#F0F0F0" stop-opacity="0"/>
</linearGradient>
</defs>
</svg>
